<svg xmlns="http://www.w3.org/2000/svg" xmlns:xlink="http://www.w3.org/1999/xlink" width="64" zoomAndPan="magnify" viewBox="0 0 48 48" height="64" preserveAspectRatio="xMidYMid meet" version="1.0"><path fill="#000000" d="M 23.542969 4.453125 C 21.925781 4.449219 20.339844 4.660156 18.777344 5.078125 C 17.21875 5.5 15.742188 6.117188 14.34375 6.929688 C 12.949219 7.742188 11.683594 8.722656 10.546875 9.875 C 9.414062 11.023438 8.449219 12.300781 7.652344 13.707031 C 6.855469 15.113281 6.257812 16.597656 5.859375 18.164062 C 5.457031 19.730469 5.269531 21.320312 5.292969 22.933594 C 5.3125 24.550781 5.546875 26.136719 5.992188 27.6875 C 6.433594 29.242188 7.074219 30.710938 7.90625 32.09375 L 5.332031 39.8125 C 5.289062 39.945312 5.277344 40.082031 5.300781 40.21875 C 5.320312 40.355469 5.371094 40.484375 5.453125 40.597656 C 5.535156 40.710938 5.636719 40.796875 5.761719 40.863281 C 5.886719 40.925781 6.019531 40.957031 6.160156 40.957031 C 6.253906 40.957031 6.34375 40.941406 6.433594 40.914062 L 14.152344 38.339844 C 14.753906 38.699219 15.371094 39.027344 16.011719 39.316406 C 16.648438 39.605469 17.300781 39.855469 17.96875 40.070312 C 18.636719 40.285156 19.3125 40.460938 20 40.597656 C 20.6875 40.734375 21.382812 40.828125 22.078125 40.886719 C 22.777344 40.941406 23.476562 40.957031 24.179688 40.933594 C 24.878906 40.910156 25.574219 40.84375 26.269531 40.742188 C 26.960938 40.636719 27.644531 40.492188 28.320312 40.308594 C 29 40.125 29.660156 39.902344 30.3125 39.644531 C 30.964844 39.382812 31.597656 39.089844 32.214844 38.753906 C 32.832031 38.421875 33.425781 38.054688 34 37.652344 C 34.574219 37.253906 35.125 36.820312 35.648438 36.355469 C 36.171875 35.890625 36.667969 35.398438 37.136719 34.875 C 37.605469 34.351562 38.039062 33.804688 38.445312 33.234375 C 38.851562 32.660156 39.21875 32.070312 39.558594 31.453125 C 39.894531 30.839844 40.191406 30.207031 40.457031 29.558594 C 40.71875 28.90625 40.945312 28.246094 41.132812 27.570312 C 41.320312 26.894531 41.46875 26.210938 41.574219 25.519531 C 41.683594 24.828125 41.75 24.128906 41.78125 23.429688 C 41.808594 22.730469 41.796875 22.03125 41.742188 21.332031 C 41.691406 20.632812 41.597656 19.9375 41.464844 19.25 C 41.332031 18.5625 41.164062 17.886719 40.953125 17.214844 C 40.742188 16.546875 40.492188 15.894531 40.207031 15.253906 C 39.921875 14.613281 39.597656 13.992188 39.242188 13.390625 C 38.882812 12.789062 38.492188 12.207031 38.070312 11.648438 C 37.644531 11.09375 37.191406 10.5625 36.703125 10.054688 C 36.21875 9.550781 35.707031 9.074219 35.164062 8.628906 C 34.625 8.183594 34.0625 7.769531 33.472656 7.386719 C 32.886719 7.007812 32.277344 6.660156 31.648438 6.347656 C 31.019531 6.039062 30.378906 5.765625 29.71875 5.527344 C 29.058594 5.289062 28.386719 5.089844 27.707031 4.933594 C 27.023438 4.773438 26.332031 4.652344 25.636719 4.570312 C 24.941406 4.492188 24.242188 4.453125 23.542969 4.453125 Z M 23.542969 39.21875 C 20.355469 39.214844 17.417969 38.359375 14.726562 36.652344 C 14.585938 36.5625 14.429688 36.515625 14.261719 36.515625 C 14.167969 36.515625 14.078125 36.53125 13.988281 36.5625 L 7.53125 38.714844 L 9.683594 32.257812 C 9.769531 31.996094 9.742188 31.75 9.59375 31.519531 C 9.273438 31.007812 8.976562 30.480469 8.714844 29.933594 C 8.449219 29.390625 8.214844 28.832031 8.011719 28.261719 C 7.808594 27.691406 7.636719 27.113281 7.496094 26.523438 C 7.355469 25.9375 7.25 25.339844 7.175781 24.742188 C 7.101562 24.140625 7.058594 23.535156 7.050781 22.933594 C 7.042969 22.328125 7.070312 21.722656 7.128906 21.121094 C 7.1875 20.519531 7.277344 19.921875 7.402344 19.328125 C 7.527344 18.734375 7.683594 18.152344 7.871094 17.578125 C 8.058594 17.003906 8.28125 16.4375 8.53125 15.886719 C 8.78125 15.335938 9.058594 14.800781 9.371094 14.28125 C 9.679688 13.761719 10.015625 13.257812 10.378906 12.777344 C 10.746094 12.292969 11.136719 11.832031 11.550781 11.390625 C 11.964844 10.949219 12.402344 10.535156 12.863281 10.144531 C 13.324219 9.75 13.808594 9.386719 14.308594 9.046875 C 14.808594 8.707031 15.328125 8.398438 15.863281 8.113281 C 16.398438 7.832031 16.949219 7.582031 17.511719 7.359375 C 18.074219 7.136719 18.648438 6.949219 19.234375 6.789062 C 19.816406 6.632812 20.40625 6.503906 21.003906 6.410156 C 21.605469 6.316406 22.203125 6.257812 22.808594 6.230469 C 23.414062 6.203125 24.019531 6.210938 24.621094 6.25 C 25.226562 6.289062 25.828125 6.359375 26.421875 6.464844 C 27.019531 6.570312 27.605469 6.707031 28.1875 6.878906 C 28.769531 7.046875 29.339844 7.25 29.898438 7.480469 C 30.457031 7.714844 31 7.976562 31.53125 8.269531 C 32.058594 8.5625 32.570312 8.882812 33.066406 9.230469 C 33.5625 9.582031 34.035156 9.957031 34.488281 10.355469 C 34.941406 10.757812 35.371094 11.183594 35.777344 11.628906 C 36.183594 12.078125 36.566406 12.546875 36.921875 13.039062 C 37.273438 13.527344 37.601562 14.035156 37.902344 14.5625 C 38.199219 15.089844 38.46875 15.628906 38.707031 16.183594 C 38.949219 16.742188 39.15625 17.308594 39.332031 17.886719 C 39.511719 18.464844 39.65625 19.050781 39.769531 19.648438 C 39.882812 20.242188 39.960938 20.839844 40.007812 21.445312 C 40.054688 22.046875 40.066406 22.652344 40.046875 23.257812 C 40.027344 23.863281 39.976562 24.464844 39.886719 25.0625 C 39.800781 25.660156 39.683594 26.253906 39.53125 26.839844 C 39.382812 27.425781 39.199219 28.003906 38.984375 28.566406 C 38.769531 29.132812 38.523438 29.6875 38.25 30.226562 C 37.972656 30.765625 37.667969 31.285156 37.335938 31.792969 C 37.003906 32.296875 36.644531 32.78125 36.257812 33.25 C 35.871094 33.714844 35.460938 34.15625 35.027344 34.578125 C 34.589844 35 34.132812 35.394531 33.65625 35.765625 C 33.175781 36.136719 32.679688 36.480469 32.164062 36.796875 C 31.648438 37.109375 31.113281 37.398438 30.566406 37.65625 C 30.019531 37.910156 29.457031 38.136719 28.886719 38.332031 C 28.3125 38.527344 27.730469 38.691406 27.140625 38.824219 C 26.550781 38.957031 25.953125 39.054688 25.351562 39.121094 C 24.75 39.1875 24.148438 39.21875 23.542969 39.21875 Z M 16.589844 22.703125 C 16.589844 22.933594 16.542969 23.15625 16.457031 23.371094 C 16.367188 23.582031 16.242188 23.769531 16.078125 23.933594 C 15.917969 24.097656 15.730469 24.222656 15.515625 24.3125 C 15.300781 24.398438 15.082031 24.441406 14.851562 24.441406 C 14.621094 24.441406 14.398438 24.398438 14.183594 24.3125 C 13.972656 24.222656 13.785156 24.097656 13.621094 23.933594 C 13.457031 23.769531 13.332031 23.582031 13.246094 23.371094 C 13.15625 23.15625 13.113281 22.933594 13.113281 22.703125 C 13.113281 22.472656 13.15625 22.253906 13.246094 22.039062 C 13.332031 21.828125 13.457031 21.636719 13.621094 21.476562 C 13.785156 21.3125 13.972656 21.1875 14.183594 21.097656 C 14.398438 21.011719 14.621094 20.964844 14.851562 20.964844 C 15.082031 20.964844 15.300781 21.011719 15.515625 21.097656 C 15.730469 21.1875 15.917969 21.3125 16.078125 21.476562 C 16.242188 21.636719 16.367188 21.828125 16.457031 22.039062 C 16.542969 22.253906 16.589844 22.472656 16.589844 22.703125 Z M 25.28125 22.703125 C 25.28125 22.933594 25.238281 23.15625 25.148438 23.371094 C 25.058594 23.582031 24.933594 23.769531 24.769531 23.933594 C 24.609375 24.097656 24.421875 24.222656 24.207031 24.3125 C 23.996094 24.398438 23.773438 24.441406 23.542969 24.441406 C 23.3125 24.441406 23.089844 24.398438 22.875 24.3125 C 22.664062 24.222656 22.476562 24.097656 22.3125 23.933594 C 22.148438 23.769531 22.023438 23.582031 21.9375 23.371094 C 21.847656 23.15625 21.804688 22.933594 21.804688 22.703125 C 21.804688 22.472656 21.847656 22.253906 21.9375 22.039062 C 22.023438 21.828125 22.148438 21.636719 22.3125 21.476562 C 22.476562 21.3125 22.664062 21.1875 22.875 21.097656 C 23.089844 21.011719 23.3125 20.964844 23.542969 20.964844 C 23.773438 20.964844 23.996094 21.011719 24.207031 21.097656 C 24.421875 21.1875 24.609375 21.3125 24.769531 21.476562 C 24.933594 21.636719 25.058594 21.828125 25.148438 22.039062 C 25.238281 22.253906 25.28125 22.472656 25.28125 22.703125 Z M 33.972656 22.703125 C 33.972656 22.933594 33.929688 23.15625 33.839844 23.371094 C 33.75 23.582031 33.625 23.769531 33.464844 23.933594 C 33.300781 24.097656 33.113281 24.222656 32.898438 24.3125 C 32.6875 24.398438 32.464844 24.441406 32.234375 24.441406 C 32.003906 24.441406 31.78125 24.398438 31.570312 24.3125 C 31.355469 24.222656 31.167969 24.097656 31.003906 23.933594 C 30.839844 23.769531 30.714844 23.582031 30.628906 23.371094 C 30.539062 23.15625 30.496094 22.933594 30.496094 22.703125 C 30.496094 22.472656 30.539062 22.253906 30.628906 22.039062 C 30.714844 21.828125 30.839844 21.636719 31.003906 21.476562 C 31.167969 21.3125 31.355469 21.1875 31.570312 21.097656 C 31.78125 21.011719 32.003906 20.964844 32.234375 20.964844 C 32.464844 20.964844 32.6875 21.011719 32.898438 21.097656 C 33.113281 21.1875 33.300781 21.3125 33.464844 21.476562 C 33.625 21.636719 33.75 21.828125 33.839844 22.039062 C 33.929688 22.253906 33.972656 22.472656 33.972656 22.703125 Z M 33.972656 22.703125 " fill-opacity="1" fill-rule="nonzero"/></svg>