<svg xmlns="http://www.w3.org/2000/svg" xmlns:xlink="http://www.w3.org/1999/xlink" width="64" zoomAndPan="magnify" viewBox="0 0 48 48" height="64" preserveAspectRatio="xMidYMid meet" version="1.0"><defs><clipPath id="ba0c26e156"><path d="M 5.378906 5 L 42.847656 5 L 42.847656 40.9375 L 5.378906 40.9375 Z M 5.378906 5 " clip-rule="nonzero"/></clipPath></defs><g clip-path="url(#ba0c26e156)"><path fill="#000000" d="M 23.976562 28.542969 C 17.015625 28.542969 11.402344 32.976562 8.964844 40.398438 C 8.796875 40.90625 8.882812 41.441406 9.195312 41.871094 C 9.503906 42.300781 9.984375 42.546875 10.515625 42.546875 L 37.441406 42.546875 C 37.96875 42.546875 38.449219 42.300781 38.761719 41.871094 C 39.074219 41.441406 39.160156 40.90625 38.992188 40.398438 C 36.550781 32.976562 30.941406 28.542969 23.976562 28.542969 Z M 37.441406 45.8125 L 10.515625 45.8125 C 8.925781 45.8125 7.480469 45.074219 6.550781 43.785156 C 5.617188 42.5 5.367188 40.890625 5.863281 39.382812 C 8.765625 30.554688 15.535156 25.28125 23.976562 25.28125 C 32.417969 25.28125 39.191406 30.554688 42.09375 39.382812 C 42.589844 40.890625 42.339844 42.5 41.40625 43.785156 C 40.476562 45.074219 39.03125 45.8125 37.441406 45.8125 Z M 23.976562 8.285156 C 20.308594 8.285156 17.320312 11.269531 17.320312 14.941406 C 17.320312 18.617188 21.347656 21.597656 23.976562 21.597656 C 26.605469 21.597656 30.632812 18.617188 30.632812 14.941406 C 30.632812 11.269531 27.648438 8.285156 23.976562 8.285156 Z M 23.976562 24.859375 C 19.511719 24.859375 14.058594 20.28125 14.058594 14.941406 C 14.058594 9.472656 18.507812 5.023438 23.976562 5.023438 C 29.449219 5.023438 33.898438 9.472656 33.898438 14.941406 C 33.898438 20.28125 28.441406 24.859375 23.976562 24.859375 " fill-opacity="1" fill-rule="nonzero"/></g></svg>