<svg xmlns="http://www.w3.org/2000/svg" xmlns:xlink="http://www.w3.org/1999/xlink" width="64" zoomAndPan="magnify" viewBox="0 0 48 48" height="64" preserveAspectRatio="xMidYMid meet" version="1.0"><defs><clipPath id="dd77e22c1b"><path d="M 4.046875 11.140625 L 43.71875 11.140625 L 43.71875 36.117188 L 4.046875 36.117188 Z M 4.046875 11.140625 " clip-rule="nonzero"/></clipPath></defs><g clip-path="url(#dd77e22c1b)"><path fill="#000000" d="M 7.871094 36.15625 L 30.542969 36.15625 C 31.039062 36.15625 31.519531 36.058594 31.976562 35.863281 C 32.4375 35.671875 32.839844 35.394531 33.191406 35.039062 C 33.542969 34.683594 33.8125 34.273438 34.003906 33.804688 C 34.195312 33.339844 34.289062 32.855469 34.292969 32.351562 L 34.292969 29.746094 L 40.03125 32.902344 C 40.21875 33.003906 40.414062 33.082031 40.617188 33.132812 C 40.824219 33.183594 41.035156 33.207031 41.246094 33.203125 C 41.457031 33.199219 41.664062 33.164062 41.867188 33.105469 C 42.074219 33.046875 42.265625 32.960938 42.449219 32.851562 C 42.628906 32.742188 42.796875 32.609375 42.941406 32.457031 C 43.089844 32.300781 43.21875 32.132812 43.324219 31.945312 C 43.425781 31.757812 43.507812 31.558594 43.5625 31.351562 C 43.613281 31.144531 43.640625 30.933594 43.640625 30.71875 L 43.640625 16.609375 C 43.640625 16.394531 43.613281 16.183594 43.5625 15.976562 C 43.507812 15.765625 43.425781 15.570312 43.324219 15.382812 C 43.21875 15.195312 43.089844 15.023438 42.941406 14.871094 C 42.796875 14.71875 42.628906 14.585938 42.449219 14.476562 C 42.265625 14.363281 42.074219 14.28125 41.871094 14.21875 C 41.664062 14.160156 41.457031 14.128906 41.246094 14.125 C 41.035156 14.121094 40.824219 14.144531 40.617188 14.195312 C 40.414062 14.246094 40.21875 14.320312 40.03125 14.425781 L 34.292969 17.578125 L 34.292969 14.976562 C 34.289062 14.472656 34.195312 13.988281 34.003906 13.523438 C 33.8125 13.054688 33.542969 12.644531 33.191406 12.289062 C 32.839844 11.929688 32.4375 11.65625 31.976562 11.460938 C 31.519531 11.269531 31.039062 11.171875 30.542969 11.171875 L 7.871094 11.171875 C 7.375 11.171875 6.898438 11.269531 6.4375 11.460938 C 5.980469 11.65625 5.574219 11.929688 5.222656 12.289062 C 4.871094 12.644531 4.601562 13.054688 4.410156 13.523438 C 4.222656 13.988281 4.125 14.472656 4.125 14.976562 L 4.125 32.351562 C 4.125 32.855469 4.222656 33.339844 4.410156 33.804688 C 4.601562 34.273438 4.871094 34.683594 5.222656 35.039062 C 5.574219 35.394531 5.980469 35.671875 6.4375 35.863281 C 6.898438 36.058594 7.375 36.15625 7.871094 36.15625 Z M 41.003906 16.25 C 41.066406 16.214844 41.132812 16.199219 41.203125 16.199219 C 41.273438 16.203125 41.339844 16.222656 41.402344 16.257812 C 41.460938 16.296875 41.511719 16.34375 41.546875 16.40625 C 41.582031 16.46875 41.597656 16.539062 41.597656 16.609375 L 41.597656 30.71875 C 41.597656 30.789062 41.582031 30.855469 41.546875 30.917969 C 41.511719 30.980469 41.460938 31.03125 41.402344 31.070312 C 41.339844 31.105469 41.273438 31.125 41.203125 31.125 C 41.132812 31.128906 41.066406 31.113281 41.003906 31.078125 L 34.292969 27.386719 L 34.292969 19.941406 Z M 6.167969 14.976562 C 6.167969 14.746094 6.210938 14.527344 6.300781 14.316406 C 6.386719 14.105469 6.507812 13.917969 6.667969 13.753906 C 6.828125 13.59375 7.011719 13.46875 7.21875 13.378906 C 7.429688 13.292969 7.644531 13.246094 7.871094 13.246094 L 30.542969 13.246094 C 30.769531 13.246094 30.988281 13.292969 31.195312 13.378906 C 31.402344 13.46875 31.589844 13.59375 31.746094 13.753906 C 31.90625 13.917969 32.03125 14.105469 32.117188 14.316406 C 32.203125 14.527344 32.246094 14.746094 32.246094 14.976562 L 32.246094 32.351562 C 32.246094 32.578125 32.203125 32.800781 32.117188 33.011719 C 32.03125 33.222656 31.90625 33.410156 31.746094 33.574219 C 31.589844 33.734375 31.402344 33.859375 31.195312 33.949219 C 30.988281 34.035156 30.769531 34.078125 30.542969 34.078125 L 7.871094 34.078125 C 7.644531 34.078125 7.429688 34.035156 7.21875 33.949219 C 7.011719 33.859375 6.828125 33.734375 6.667969 33.574219 C 6.507812 33.410156 6.386719 33.222656 6.300781 33.011719 C 6.210938 32.800781 6.167969 32.578125 6.167969 32.351562 Z M 6.167969 14.976562 " fill-opacity="1" fill-rule="nonzero"/></g><path stroke-linecap="butt" transform="matrix(0, -0.734694, 0.734694, 0, 17.973045, 31.029338)" fill="none" stroke-linejoin="miter" d="M -0.00260287 1.998603 L 18.478735 1.998603 " stroke="#000000" stroke-width="4" stroke-opacity="1" stroke-miterlimit="4"/><path stroke-linecap="round" transform="matrix(0, -0.734694, 0.734694, 0, 17.973045, 31.029338)" fill="none" stroke-linejoin="round" d="M 10.482207 -3.998793 L 18.478735 1.998603 L 10.482207 8.001316 " stroke="#000000" stroke-width="4" stroke-opacity="1" stroke-miterlimit="4"/></svg>